<?xml version="1.0" encoding="utf-8" standalone="no"?>
<!DOCTYPE svg PUBLIC "-//W3C//DTD SVG 1.1//EN"
  "http://www.w3.org/Graphics/SVG/1.1/DTD/svg11.dtd">
<svg xmlns:xlink="http://www.w3.org/1999/xlink" width="460.8pt" height="345.6pt" viewBox="0 0 460.8 345.6" xmlns="http://www.w3.org/2000/svg" version="1.1">
 <metadata>
  <rdf:RDF xmlns:dc="http://purl.org/dc/elements/1.1/" xmlns:cc="http://creativecommons.org/ns#" xmlns:rdf="http://www.w3.org/1999/02/22-rdf-syntax-ns#">
   <cc:Work>
    <dc:type rdf:resource="http://purl.org/dc/dcmitype/StillImage"/>
    <dc:date>2024-10-07T21:49:50.917100</dc:date>
    <dc:format>image/svg+xml</dc:format>
    <dc:creator>
     <cc:Agent>
      <dc:title>Matplotlib v3.5.2, https://matplotlib.org/</dc:title>
     </cc:Agent>
    </dc:creator>
   </cc:Work>
  </rdf:RDF>
 </metadata>
 <defs>
  <style type="text/css">*{stroke-linejoin: round; stroke-linecap: butt}</style>
 </defs>
 <g id="figure_1">
  <g id="patch_1">
   <path d="M 0 345.6 
L 460.8 345.6 
L 460.8 0 
L 0 0 
z
" style="fill: #ffffff"/>
  </g>
  <g id="axes_1">
   <g id="patch_2">
    <path d="M 57.6 307.584 
L 414.72 307.584 
L 414.72 41.472 
L 57.6 41.472 
z
" style="fill: #ffffff"/>
   </g>
   <g id="matplotlib.axis_1">
    <g id="xtick_1">
     <g id="line2d_1">
      <path d="M 73.832727 307.584 
L 73.832727 41.472 
" clip-path="url(#p76a697f6e9)" style="fill: none; stroke: #b0b0b0; stroke-width: 0.8; stroke-linecap: square"/>
     </g>
     <g id="line2d_2">
      <defs>
       <path id="mbfba9be192" d="M 0 0 
L 0 3.5 
" style="stroke: #000000; stroke-width: 0.8"/>
      </defs>
      <g>
       <use xlink:href="#mbfba9be192" x="73.832727" y="307.584" style="stroke: #000000; stroke-width: 0.8"/>
      </g>
     </g>
     <g id="text_1">
      <!-- 0 -->
      <g transform="translate(70.651477 322.182437)scale(0.1 -0.1)">
       <defs>
        <path id="DejaVuSans-30" d="M 2034 4250 
Q 1547 4250 1301 3770 
Q 1056 3291 1056 2328 
Q 1056 1369 1301 889 
Q 1547 409 2034 409 
Q 2525 409 2770 889 
Q 3016 1369 3016 2328 
Q 3016 3291 2770 3770 
Q 2525 4250 2034 4250 
z
M 2034 4750 
Q 2819 4750 3233 4129 
Q 3647 3509 3647 2328 
Q 3647 1150 3233 529 
Q 2819 -91 2034 -91 
Q 1250 -91 836 529 
Q 422 1150 422 2328 
Q 422 3509 836 4129 
Q 1250 4750 2034 4750 
z
" transform="scale(0.015625)"/>
       </defs>
       <use xlink:href="#DejaVuSans-30"/>
      </g>
     </g>
    </g>
    <g id="xtick_2">
     <g id="line2d_3">
      <path d="M 117.539586 307.584 
L 117.539586 41.472 
" clip-path="url(#p76a697f6e9)" style="fill: none; stroke: #b0b0b0; stroke-width: 0.8; stroke-linecap: square"/>
     </g>
     <g id="line2d_4">
      <g>
       <use xlink:href="#mbfba9be192" x="117.539586" y="307.584" style="stroke: #000000; stroke-width: 0.8"/>
      </g>
     </g>
     <g id="text_2">
      <!-- 250 -->
      <g transform="translate(107.995836 322.182437)scale(0.1 -0.1)">
       <defs>
        <path id="DejaVuSans-32" d="M 1228 531 
L 3431 531 
L 3431 0 
L 469 0 
L 469 531 
Q 828 903 1448 1529 
Q 2069 2156 2228 2338 
Q 2531 2678 2651 2914 
Q 2772 3150 2772 3378 
Q 2772 3750 2511 3984 
Q 2250 4219 1831 4219 
Q 1534 4219 1204 4116 
Q 875 4013 500 3803 
L 500 4441 
Q 881 4594 1212 4672 
Q 1544 4750 1819 4750 
Q 2544 4750 2975 4387 
Q 3406 4025 3406 3419 
Q 3406 3131 3298 2873 
Q 3191 2616 2906 2266 
Q 2828 2175 2409 1742 
Q 1991 1309 1228 531 
z
" transform="scale(0.015625)"/>
        <path id="DejaVuSans-35" d="M 691 4666 
L 3169 4666 
L 3169 4134 
L 1269 4134 
L 1269 2991 
Q 1406 3038 1543 3061 
Q 1681 3084 1819 3084 
Q 2600 3084 3056 2656 
Q 3513 2228 3513 1497 
Q 3513 744 3044 326 
Q 2575 -91 1722 -91 
Q 1428 -91 1123 -41 
Q 819 9 494 109 
L 494 744 
Q 775 591 1075 516 
Q 1375 441 1709 441 
Q 2250 441 2565 725 
Q 2881 1009 2881 1497 
Q 2881 1984 2565 2268 
Q 2250 2553 1709 2553 
Q 1456 2553 1204 2497 
Q 953 2441 691 2322 
L 691 4666 
z
" transform="scale(0.015625)"/>
       </defs>
       <use xlink:href="#DejaVuSans-32"/>
       <use xlink:href="#DejaVuSans-35" x="63.623047"/>
       <use xlink:href="#DejaVuSans-30" x="127.246094"/>
      </g>
     </g>
    </g>
    <g id="xtick_3">
     <g id="line2d_5">
      <path d="M 161.246444 307.584 
L 161.246444 41.472 
" clip-path="url(#p76a697f6e9)" style="fill: none; stroke: #b0b0b0; stroke-width: 0.8; stroke-linecap: square"/>
     </g>
     <g id="line2d_6">
      <g>
       <use xlink:href="#mbfba9be192" x="161.246444" y="307.584" style="stroke: #000000; stroke-width: 0.8"/>
      </g>
     </g>
     <g id="text_3">
      <!-- 500 -->
      <g transform="translate(151.702694 322.182437)scale(0.1 -0.1)">
       <use xlink:href="#DejaVuSans-35"/>
       <use xlink:href="#DejaVuSans-30" x="63.623047"/>
       <use xlink:href="#DejaVuSans-30" x="127.246094"/>
      </g>
     </g>
    </g>
    <g id="xtick_4">
     <g id="line2d_7">
      <path d="M 204.953303 307.584 
L 204.953303 41.472 
" clip-path="url(#p76a697f6e9)" style="fill: none; stroke: #b0b0b0; stroke-width: 0.8; stroke-linecap: square"/>
     </g>
     <g id="line2d_8">
      <g>
       <use xlink:href="#mbfba9be192" x="204.953303" y="307.584" style="stroke: #000000; stroke-width: 0.8"/>
      </g>
     </g>
     <g id="text_4">
      <!-- 750 -->
      <g transform="translate(195.409553 322.182437)scale(0.1 -0.1)">
       <defs>
        <path id="DejaVuSans-37" d="M 525 4666 
L 3525 4666 
L 3525 4397 
L 1831 0 
L 1172 0 
L 2766 4134 
L 525 4134 
L 525 4666 
z
" transform="scale(0.015625)"/>
       </defs>
       <use xlink:href="#DejaVuSans-37"/>
       <use xlink:href="#DejaVuSans-35" x="63.623047"/>
       <use xlink:href="#DejaVuSans-30" x="127.246094"/>
      </g>
     </g>
    </g>
    <g id="xtick_5">
     <g id="line2d_9">
      <path d="M 248.660162 307.584 
L 248.660162 41.472 
" clip-path="url(#p76a697f6e9)" style="fill: none; stroke: #b0b0b0; stroke-width: 0.8; stroke-linecap: square"/>
     </g>
     <g id="line2d_10">
      <g>
       <use xlink:href="#mbfba9be192" x="248.660162" y="307.584" style="stroke: #000000; stroke-width: 0.8"/>
      </g>
     </g>
     <g id="text_5">
      <!-- 1000 -->
      <g transform="translate(235.935162 322.182437)scale(0.1 -0.1)">
       <defs>
        <path id="DejaVuSans-31" d="M 794 531 
L 1825 531 
L 1825 4091 
L 703 3866 
L 703 4441 
L 1819 4666 
L 2450 4666 
L 2450 531 
L 3481 531 
L 3481 0 
L 794 0 
L 794 531 
z
" transform="scale(0.015625)"/>
       </defs>
       <use xlink:href="#DejaVuSans-31"/>
       <use xlink:href="#DejaVuSans-30" x="63.623047"/>
       <use xlink:href="#DejaVuSans-30" x="127.246094"/>
       <use xlink:href="#DejaVuSans-30" x="190.869141"/>
      </g>
     </g>
    </g>
    <g id="xtick_6">
     <g id="line2d_11">
      <path d="M 292.36702 307.584 
L 292.36702 41.472 
" clip-path="url(#p76a697f6e9)" style="fill: none; stroke: #b0b0b0; stroke-width: 0.8; stroke-linecap: square"/>
     </g>
     <g id="line2d_12">
      <g>
       <use xlink:href="#mbfba9be192" x="292.36702" y="307.584" style="stroke: #000000; stroke-width: 0.8"/>
      </g>
     </g>
     <g id="text_6">
      <!-- 1250 -->
      <g transform="translate(279.64202 322.182437)scale(0.1 -0.1)">
       <use xlink:href="#DejaVuSans-31"/>
       <use xlink:href="#DejaVuSans-32" x="63.623047"/>
       <use xlink:href="#DejaVuSans-35" x="127.246094"/>
       <use xlink:href="#DejaVuSans-30" x="190.869141"/>
      </g>
     </g>
    </g>
    <g id="xtick_7">
     <g id="line2d_13">
      <path d="M 336.073879 307.584 
L 336.073879 41.472 
" clip-path="url(#p76a697f6e9)" style="fill: none; stroke: #b0b0b0; stroke-width: 0.8; stroke-linecap: square"/>
     </g>
     <g id="line2d_14">
      <g>
       <use xlink:href="#mbfba9be192" x="336.073879" y="307.584" style="stroke: #000000; stroke-width: 0.8"/>
      </g>
     </g>
     <g id="text_7">
      <!-- 1500 -->
      <g transform="translate(323.348879 322.182437)scale(0.1 -0.1)">
       <use xlink:href="#DejaVuSans-31"/>
       <use xlink:href="#DejaVuSans-35" x="63.623047"/>
       <use xlink:href="#DejaVuSans-30" x="127.246094"/>
       <use xlink:href="#DejaVuSans-30" x="190.869141"/>
      </g>
     </g>
    </g>
    <g id="xtick_8">
     <g id="line2d_15">
      <path d="M 379.780737 307.584 
L 379.780737 41.472 
" clip-path="url(#p76a697f6e9)" style="fill: none; stroke: #b0b0b0; stroke-width: 0.8; stroke-linecap: square"/>
     </g>
     <g id="line2d_16">
      <g>
       <use xlink:href="#mbfba9be192" x="379.780737" y="307.584" style="stroke: #000000; stroke-width: 0.8"/>
      </g>
     </g>
     <g id="text_8">
      <!-- 1750 -->
      <g transform="translate(367.055737 322.182437)scale(0.1 -0.1)">
       <use xlink:href="#DejaVuSans-31"/>
       <use xlink:href="#DejaVuSans-37" x="63.623047"/>
       <use xlink:href="#DejaVuSans-35" x="127.246094"/>
       <use xlink:href="#DejaVuSans-30" x="190.869141"/>
      </g>
     </g>
    </g>
    <g id="text_9">
     <!-- Iteration -->
     <g transform="translate(214.951406 335.860562)scale(0.1 -0.1)">
      <defs>
       <path id="DejaVuSans-49" d="M 628 4666 
L 1259 4666 
L 1259 0 
L 628 0 
L 628 4666 
z
" transform="scale(0.015625)"/>
       <path id="DejaVuSans-74" d="M 1172 4494 
L 1172 3500 
L 2356 3500 
L 2356 3053 
L 1172 3053 
L 1172 1153 
Q 1172 725 1289 603 
Q 1406 481 1766 481 
L 2356 481 
L 2356 0 
L 1766 0 
Q 1100 0 847 248 
Q 594 497 594 1153 
L 594 3053 
L 172 3053 
L 172 3500 
L 594 3500 
L 594 4494 
L 1172 4494 
z
" transform="scale(0.015625)"/>
       <path id="DejaVuSans-65" d="M 3597 1894 
L 3597 1613 
L 953 1613 
Q 991 1019 1311 708 
Q 1631 397 2203 397 
Q 2534 397 2845 478 
Q 3156 559 3463 722 
L 3463 178 
Q 3153 47 2828 -22 
Q 2503 -91 2169 -91 
Q 1331 -91 842 396 
Q 353 884 353 1716 
Q 353 2575 817 3079 
Q 1281 3584 2069 3584 
Q 2775 3584 3186 3129 
Q 3597 2675 3597 1894 
z
M 3022 2063 
Q 3016 2534 2758 2815 
Q 2500 3097 2075 3097 
Q 1594 3097 1305 2825 
Q 1016 2553 972 2059 
L 3022 2063 
z
" transform="scale(0.015625)"/>
       <path id="DejaVuSans-72" d="M 2631 2963 
Q 2534 3019 2420 3045 
Q 2306 3072 2169 3072 
Q 1681 3072 1420 2755 
Q 1159 2438 1159 1844 
L 1159 0 
L 581 0 
L 581 3500 
L 1159 3500 
L 1159 2956 
Q 1341 3275 1631 3429 
Q 1922 3584 2338 3584 
Q 2397 3584 2469 3576 
Q 2541 3569 2628 3553 
L 2631 2963 
z
" transform="scale(0.015625)"/>
       <path id="DejaVuSans-61" d="M 2194 1759 
Q 1497 1759 1228 1600 
Q 959 1441 959 1056 
Q 959 750 1161 570 
Q 1363 391 1709 391 
Q 2188 391 2477 730 
Q 2766 1069 2766 1631 
L 2766 1759 
L 2194 1759 
z
M 3341 1997 
L 3341 0 
L 2766 0 
L 2766 531 
Q 2569 213 2275 61 
Q 1981 -91 1556 -91 
Q 1019 -91 701 211 
Q 384 513 384 1019 
Q 384 1609 779 1909 
Q 1175 2209 1959 2209 
L 2766 2209 
L 2766 2266 
Q 2766 2663 2505 2880 
Q 2244 3097 1772 3097 
Q 1472 3097 1187 3025 
Q 903 2953 641 2809 
L 641 3341 
Q 956 3463 1253 3523 
Q 1550 3584 1831 3584 
Q 2591 3584 2966 3190 
Q 3341 2797 3341 1997 
z
" transform="scale(0.015625)"/>
       <path id="DejaVuSans-69" d="M 603 3500 
L 1178 3500 
L 1178 0 
L 603 0 
L 603 3500 
z
M 603 4863 
L 1178 4863 
L 1178 4134 
L 603 4134 
L 603 4863 
z
" transform="scale(0.015625)"/>
       <path id="DejaVuSans-6f" d="M 1959 3097 
Q 1497 3097 1228 2736 
Q 959 2375 959 1747 
Q 959 1119 1226 758 
Q 1494 397 1959 397 
Q 2419 397 2687 759 
Q 2956 1122 2956 1747 
Q 2956 2369 2687 2733 
Q 2419 3097 1959 3097 
z
M 1959 3584 
Q 2709 3584 3137 3096 
Q 3566 2609 3566 1747 
Q 3566 888 3137 398 
Q 2709 -91 1959 -91 
Q 1206 -91 779 398 
Q 353 888 353 1747 
Q 353 2609 779 3096 
Q 1206 3584 1959 3584 
z
" transform="scale(0.015625)"/>
       <path id="DejaVuSans-6e" d="M 3513 2113 
L 3513 0 
L 2938 0 
L 2938 2094 
Q 2938 2591 2744 2837 
Q 2550 3084 2163 3084 
Q 1697 3084 1428 2787 
Q 1159 2491 1159 1978 
L 1159 0 
L 581 0 
L 581 3500 
L 1159 3500 
L 1159 2956 
Q 1366 3272 1645 3428 
Q 1925 3584 2291 3584 
Q 2894 3584 3203 3211 
Q 3513 2838 3513 2113 
z
" transform="scale(0.015625)"/>
      </defs>
      <use xlink:href="#DejaVuSans-49"/>
      <use xlink:href="#DejaVuSans-74" x="29.492188"/>
      <use xlink:href="#DejaVuSans-65" x="68.701172"/>
      <use xlink:href="#DejaVuSans-72" x="130.224609"/>
      <use xlink:href="#DejaVuSans-61" x="171.337891"/>
      <use xlink:href="#DejaVuSans-74" x="232.617188"/>
      <use xlink:href="#DejaVuSans-69" x="271.826172"/>
      <use xlink:href="#DejaVuSans-6f" x="299.609375"/>
      <use xlink:href="#DejaVuSans-6e" x="360.791016"/>
     </g>
    </g>
   </g>
   <g id="matplotlib.axis_2">
    <g id="ytick_1">
     <g id="line2d_17">
      <path d="M 57.6 307.584 
L 414.72 307.584 
" clip-path="url(#p76a697f6e9)" style="fill: none; stroke: #b0b0b0; stroke-width: 0.8; stroke-linecap: square"/>
     </g>
     <g id="line2d_18">
      <defs>
       <path id="m3c67f43d0d" d="M 0 0 
L -3.5 0 
" style="stroke: #000000; stroke-width: 0.8"/>
      </defs>
      <g>
       <use xlink:href="#m3c67f43d0d" x="57.6" y="307.584" style="stroke: #000000; stroke-width: 0.8"/>
      </g>
     </g>
     <g id="text_10">
      <!-- 0.000 -->
      <g transform="translate(21.971875 311.383219)scale(0.1 -0.1)">
       <defs>
        <path id="DejaVuSans-2e" d="M 684 794 
L 1344 794 
L 1344 0 
L 684 0 
L 684 794 
z
" transform="scale(0.015625)"/>
       </defs>
       <use xlink:href="#DejaVuSans-30"/>
       <use xlink:href="#DejaVuSans-2e" x="63.623047"/>
       <use xlink:href="#DejaVuSans-30" x="95.410156"/>
       <use xlink:href="#DejaVuSans-30" x="159.033203"/>
       <use xlink:href="#DejaVuSans-30" x="222.65625"/>
      </g>
     </g>
    </g>
    <g id="ytick_2">
     <g id="line2d_19">
      <path d="M 57.6 274.32 
L 414.72 274.32 
" clip-path="url(#p76a697f6e9)" style="fill: none; stroke: #b0b0b0; stroke-width: 0.8; stroke-linecap: square"/>
     </g>
     <g id="line2d_20">
      <g>
       <use xlink:href="#m3c67f43d0d" x="57.6" y="274.32" style="stroke: #000000; stroke-width: 0.8"/>
      </g>
     </g>
     <g id="text_11">
      <!-- 0.005 -->
      <g transform="translate(21.971875 278.119219)scale(0.1 -0.1)">
       <use xlink:href="#DejaVuSans-30"/>
       <use xlink:href="#DejaVuSans-2e" x="63.623047"/>
       <use xlink:href="#DejaVuSans-30" x="95.410156"/>
       <use xlink:href="#DejaVuSans-30" x="159.033203"/>
       <use xlink:href="#DejaVuSans-35" x="222.65625"/>
      </g>
     </g>
    </g>
    <g id="ytick_3">
     <g id="line2d_21">
      <path d="M 57.6 241.056 
L 414.72 241.056 
" clip-path="url(#p76a697f6e9)" style="fill: none; stroke: #b0b0b0; stroke-width: 0.8; stroke-linecap: square"/>
     </g>
     <g id="line2d_22">
      <g>
       <use xlink:href="#m3c67f43d0d" x="57.6" y="241.056" style="stroke: #000000; stroke-width: 0.8"/>
      </g>
     </g>
     <g id="text_12">
      <!-- 0.010 -->
      <g transform="translate(21.971875 244.855219)scale(0.1 -0.1)">
       <use xlink:href="#DejaVuSans-30"/>
       <use xlink:href="#DejaVuSans-2e" x="63.623047"/>
       <use xlink:href="#DejaVuSans-30" x="95.410156"/>
       <use xlink:href="#DejaVuSans-31" x="159.033203"/>
       <use xlink:href="#DejaVuSans-30" x="222.65625"/>
      </g>
     </g>
    </g>
    <g id="ytick_4">
     <g id="line2d_23">
      <path d="M 57.6 207.792 
L 414.72 207.792 
" clip-path="url(#p76a697f6e9)" style="fill: none; stroke: #b0b0b0; stroke-width: 0.8; stroke-linecap: square"/>
     </g>
     <g id="line2d_24">
      <g>
       <use xlink:href="#m3c67f43d0d" x="57.6" y="207.792" style="stroke: #000000; stroke-width: 0.8"/>
      </g>
     </g>
     <g id="text_13">
      <!-- 0.015 -->
      <g transform="translate(21.971875 211.591219)scale(0.1 -0.1)">
       <use xlink:href="#DejaVuSans-30"/>
       <use xlink:href="#DejaVuSans-2e" x="63.623047"/>
       <use xlink:href="#DejaVuSans-30" x="95.410156"/>
       <use xlink:href="#DejaVuSans-31" x="159.033203"/>
       <use xlink:href="#DejaVuSans-35" x="222.65625"/>
      </g>
     </g>
    </g>
    <g id="ytick_5">
     <g id="line2d_25">
      <path d="M 57.6 174.528 
L 414.72 174.528 
" clip-path="url(#p76a697f6e9)" style="fill: none; stroke: #b0b0b0; stroke-width: 0.8; stroke-linecap: square"/>
     </g>
     <g id="line2d_26">
      <g>
       <use xlink:href="#m3c67f43d0d" x="57.6" y="174.528" style="stroke: #000000; stroke-width: 0.8"/>
      </g>
     </g>
     <g id="text_14">
      <!-- 0.020 -->
      <g transform="translate(21.971875 178.327219)scale(0.1 -0.1)">
       <use xlink:href="#DejaVuSans-30"/>
       <use xlink:href="#DejaVuSans-2e" x="63.623047"/>
       <use xlink:href="#DejaVuSans-30" x="95.410156"/>
       <use xlink:href="#DejaVuSans-32" x="159.033203"/>
       <use xlink:href="#DejaVuSans-30" x="222.65625"/>
      </g>
     </g>
    </g>
    <g id="ytick_6">
     <g id="line2d_27">
      <path d="M 57.6 141.264 
L 414.72 141.264 
" clip-path="url(#p76a697f6e9)" style="fill: none; stroke: #b0b0b0; stroke-width: 0.8; stroke-linecap: square"/>
     </g>
     <g id="line2d_28">
      <g>
       <use xlink:href="#m3c67f43d0d" x="57.6" y="141.264" style="stroke: #000000; stroke-width: 0.8"/>
      </g>
     </g>
     <g id="text_15">
      <!-- 0.025 -->
      <g transform="translate(21.971875 145.063219)scale(0.1 -0.1)">
       <use xlink:href="#DejaVuSans-30"/>
       <use xlink:href="#DejaVuSans-2e" x="63.623047"/>
       <use xlink:href="#DejaVuSans-30" x="95.410156"/>
       <use xlink:href="#DejaVuSans-32" x="159.033203"/>
       <use xlink:href="#DejaVuSans-35" x="222.65625"/>
      </g>
     </g>
    </g>
    <g id="ytick_7">
     <g id="line2d_29">
      <path d="M 57.6 108 
L 414.72 108 
" clip-path="url(#p76a697f6e9)" style="fill: none; stroke: #b0b0b0; stroke-width: 0.8; stroke-linecap: square"/>
     </g>
     <g id="line2d_30">
      <g>
       <use xlink:href="#m3c67f43d0d" x="57.6" y="108" style="stroke: #000000; stroke-width: 0.8"/>
      </g>
     </g>
     <g id="text_16">
      <!-- 0.030 -->
      <g transform="translate(21.971875 111.799219)scale(0.1 -0.1)">
       <defs>
        <path id="DejaVuSans-33" d="M 2597 2516 
Q 3050 2419 3304 2112 
Q 3559 1806 3559 1356 
Q 3559 666 3084 287 
Q 2609 -91 1734 -91 
Q 1441 -91 1130 -33 
Q 819 25 488 141 
L 488 750 
Q 750 597 1062 519 
Q 1375 441 1716 441 
Q 2309 441 2620 675 
Q 2931 909 2931 1356 
Q 2931 1769 2642 2001 
Q 2353 2234 1838 2234 
L 1294 2234 
L 1294 2753 
L 1863 2753 
Q 2328 2753 2575 2939 
Q 2822 3125 2822 3475 
Q 2822 3834 2567 4026 
Q 2313 4219 1838 4219 
Q 1578 4219 1281 4162 
Q 984 4106 628 3988 
L 628 4550 
Q 988 4650 1302 4700 
Q 1616 4750 1894 4750 
Q 2613 4750 3031 4423 
Q 3450 4097 3450 3541 
Q 3450 3153 3228 2886 
Q 3006 2619 2597 2516 
z
" transform="scale(0.015625)"/>
       </defs>
       <use xlink:href="#DejaVuSans-30"/>
       <use xlink:href="#DejaVuSans-2e" x="63.623047"/>
       <use xlink:href="#DejaVuSans-30" x="95.410156"/>
       <use xlink:href="#DejaVuSans-33" x="159.033203"/>
       <use xlink:href="#DejaVuSans-30" x="222.65625"/>
      </g>
     </g>
    </g>
    <g id="ytick_8">
     <g id="line2d_31">
      <path d="M 57.6 74.736 
L 414.72 74.736 
" clip-path="url(#p76a697f6e9)" style="fill: none; stroke: #b0b0b0; stroke-width: 0.8; stroke-linecap: square"/>
     </g>
     <g id="line2d_32">
      <g>
       <use xlink:href="#m3c67f43d0d" x="57.6" y="74.736" style="stroke: #000000; stroke-width: 0.8"/>
      </g>
     </g>
     <g id="text_17">
      <!-- 0.035 -->
      <g transform="translate(21.971875 78.535219)scale(0.1 -0.1)">
       <use xlink:href="#DejaVuSans-30"/>
       <use xlink:href="#DejaVuSans-2e" x="63.623047"/>
       <use xlink:href="#DejaVuSans-30" x="95.410156"/>
       <use xlink:href="#DejaVuSans-33" x="159.033203"/>
       <use xlink:href="#DejaVuSans-35" x="222.65625"/>
      </g>
     </g>
    </g>
    <g id="ytick_9">
     <g id="line2d_33">
      <path d="M 57.6 41.472 
L 414.72 41.472 
" clip-path="url(#p76a697f6e9)" style="fill: none; stroke: #b0b0b0; stroke-width: 0.8; stroke-linecap: square"/>
     </g>
     <g id="line2d_34">
      <g>
       <use xlink:href="#m3c67f43d0d" x="57.6" y="41.472" style="stroke: #000000; stroke-width: 0.8"/>
      </g>
     </g>
     <g id="text_18">
      <!-- 0.040 -->
      <g transform="translate(21.971875 45.271219)scale(0.1 -0.1)">
       <defs>
        <path id="DejaVuSans-34" d="M 2419 4116 
L 825 1625 
L 2419 1625 
L 2419 4116 
z
M 2253 4666 
L 3047 4666 
L 3047 1625 
L 3713 1625 
L 3713 1100 
L 3047 1100 
L 3047 0 
L 2419 0 
L 2419 1100 
L 313 1100 
L 313 1709 
L 2253 4666 
z
" transform="scale(0.015625)"/>
       </defs>
       <use xlink:href="#DejaVuSans-30"/>
       <use xlink:href="#DejaVuSans-2e" x="63.623047"/>
       <use xlink:href="#DejaVuSans-30" x="95.410156"/>
       <use xlink:href="#DejaVuSans-34" x="159.033203"/>
       <use xlink:href="#DejaVuSans-30" x="222.65625"/>
      </g>
     </g>
    </g>
    <g id="text_19">
     <!-- Time (s) -->
     <g transform="translate(15.892187 194.856906)rotate(-90)scale(0.1 -0.1)">
      <defs>
       <path id="DejaVuSans-54" d="M -19 4666 
L 3928 4666 
L 3928 4134 
L 2272 4134 
L 2272 0 
L 1638 0 
L 1638 4134 
L -19 4134 
L -19 4666 
z
" transform="scale(0.015625)"/>
       <path id="DejaVuSans-6d" d="M 3328 2828 
Q 3544 3216 3844 3400 
Q 4144 3584 4550 3584 
Q 5097 3584 5394 3201 
Q 5691 2819 5691 2113 
L 5691 0 
L 5113 0 
L 5113 2094 
Q 5113 2597 4934 2840 
Q 4756 3084 4391 3084 
Q 3944 3084 3684 2787 
Q 3425 2491 3425 1978 
L 3425 0 
L 2847 0 
L 2847 2094 
Q 2847 2600 2669 2842 
Q 2491 3084 2119 3084 
Q 1678 3084 1418 2786 
Q 1159 2488 1159 1978 
L 1159 0 
L 581 0 
L 581 3500 
L 1159 3500 
L 1159 2956 
Q 1356 3278 1631 3431 
Q 1906 3584 2284 3584 
Q 2666 3584 2933 3390 
Q 3200 3197 3328 2828 
z
" transform="scale(0.015625)"/>
       <path id="DejaVuSans-20" transform="scale(0.015625)"/>
       <path id="DejaVuSans-28" d="M 1984 4856 
Q 1566 4138 1362 3434 
Q 1159 2731 1159 2009 
Q 1159 1288 1364 580 
Q 1569 -128 1984 -844 
L 1484 -844 
Q 1016 -109 783 600 
Q 550 1309 550 2009 
Q 550 2706 781 3412 
Q 1013 4119 1484 4856 
L 1984 4856 
z
" transform="scale(0.015625)"/>
       <path id="DejaVuSans-73" d="M 2834 3397 
L 2834 2853 
Q 2591 2978 2328 3040 
Q 2066 3103 1784 3103 
Q 1356 3103 1142 2972 
Q 928 2841 928 2578 
Q 928 2378 1081 2264 
Q 1234 2150 1697 2047 
L 1894 2003 
Q 2506 1872 2764 1633 
Q 3022 1394 3022 966 
Q 3022 478 2636 193 
Q 2250 -91 1575 -91 
Q 1294 -91 989 -36 
Q 684 19 347 128 
L 347 722 
Q 666 556 975 473 
Q 1284 391 1588 391 
Q 1994 391 2212 530 
Q 2431 669 2431 922 
Q 2431 1156 2273 1281 
Q 2116 1406 1581 1522 
L 1381 1569 
Q 847 1681 609 1914 
Q 372 2147 372 2553 
Q 372 3047 722 3315 
Q 1072 3584 1716 3584 
Q 2034 3584 2315 3537 
Q 2597 3491 2834 3397 
z
" transform="scale(0.015625)"/>
       <path id="DejaVuSans-29" d="M 513 4856 
L 1013 4856 
Q 1481 4119 1714 3412 
Q 1947 2706 1947 2009 
Q 1947 1309 1714 600 
Q 1481 -109 1013 -844 
L 513 -844 
Q 928 -128 1133 580 
Q 1338 1288 1338 2009 
Q 1338 2731 1133 3434 
Q 928 4138 513 4856 
z
" transform="scale(0.015625)"/>
      </defs>
      <use xlink:href="#DejaVuSans-54"/>
      <use xlink:href="#DejaVuSans-69" x="57.958984"/>
      <use xlink:href="#DejaVuSans-6d" x="85.742188"/>
      <use xlink:href="#DejaVuSans-65" x="183.154297"/>
      <use xlink:href="#DejaVuSans-20" x="244.677734"/>
      <use xlink:href="#DejaVuSans-28" x="276.464844"/>
      <use xlink:href="#DejaVuSans-73" x="315.478516"/>
      <use xlink:href="#DejaVuSans-29" x="367.578125"/>
     </g>
    </g>
   </g>
   <g id="line2d_35">
    <path d="M 0 0 
" clip-path="url(#p76a697f6e9)" style="fill: none; stroke: #1f77b4; stroke-width: 1.5; stroke-linecap: square"/>
   </g>
   <g id="line2d_36">
    <path d="M 73.832727 152.686826 
L 74.007555 200.840788 
L 74.182382 217.993426 
L 74.35721 186.608254 
L 74.532037 183.104446 
L 74.881692 219.398756 
L 75.056519 222.220519 
L 75.231347 222.63609 
L 75.406174 228.411267 
L 75.581002 208.111705 
L 75.930656 230.141758 
L 76.105484 209.176012 
L 76.455139 197.249742 
L 76.629966 207.025191 
L 76.804794 200.596521 
L 76.979621 211.195182 
L 77.154449 204.252599 
L 77.329276 208.517759 
L 77.504103 227.508747 
L 77.678931 230.373336 
L 78.028586 219.884118 
L 78.203413 229.795977 
L 78.378241 221.678055 
L 78.553068 230.763529 
L 78.727895 224.407821 
L 78.902723 227.059866 
L 79.07755 235.569567 
L 79.252378 218.140938 
L 79.427205 232.095896 
L 79.77686 229.15993 
L 79.951687 229.237651 
L 80.126515 225.353167 
L 80.301342 234.465606 
L 80.47617 234.234027 
L 80.650997 227.956041 
L 80.825825 232.863593 
L 81.000652 228.958489 
L 81.17548 236.743319 
L 81.525134 228.390647 
L 81.699962 232.356025 
L 82.049617 225.992386 
L 82.224444 234.55443 
L 82.399272 222.144384 
L 82.574099 232.776355 
L 82.748926 220.794569 
L 82.923754 236.245267 
L 83.098581 234.029414 
L 83.273409 223.521163 
L 83.448236 224.514093 
L 83.623064 230.907869 
L 83.797891 232.506709 
L 83.972718 225.362684 
L 84.497201 234.563947 
L 84.672028 231.999141 
L 85.021683 214.169216 
L 85.196511 241.330468 
L 85.371338 236.752835 
L 85.546165 208.792163 
L 85.720993 238.573737 
L 85.89582 240.074236 
L 86.245475 177.751186 
L 86.420303 203.102639 
L 86.59513 181.954486 
L 86.769957 193.917238 
L 86.944785 191.296917 
L 87.119612 210.444933 
L 87.29444 190.719558 
L 87.469267 228.201895 
L 87.644095 231.791355 
L 87.818922 238.940138 
L 87.993749 241.295572 
L 88.168577 245.183229 
L 88.343404 236.80042 
L 88.518232 240.962481 
L 88.693059 240.332779 
L 88.867887 238.580082 
L 89.042714 239.481015 
L 89.392369 226.67919 
L 89.567196 230.815872 
L 89.742024 217.812605 
L 89.916851 214.101011 
L 90.091679 212.892364 
L 90.266506 217.669851 
L 90.441334 214.878225 
L 90.616161 207.312284 
L 90.790988 244.674074 
L 90.965816 235.309438 
L 91.140643 241.655629 
L 91.490298 186.647908 
L 91.665126 206.211496 
L 91.839953 194.389911 
L 92.189608 245.094404 
L 92.364435 239.435017 
L 92.539263 239.331917 
L 92.71409 219.909497 
L 92.888918 217.71585 
L 93.238572 206.985537 
L 93.4134 215.187525 
L 93.588227 236.960621 
L 93.763055 235.403021 
L 93.937882 235.572739 
L 94.11271 238.648286 
L 94.287537 236.930484 
L 94.462365 237.507843 
L 94.637192 238.673664 
L 94.812019 232.695461 
L 94.986847 243.909549 
L 95.161674 237.114478 
L 95.336502 237.512602 
L 95.511329 241.766659 
L 95.686157 240.613527 
L 95.860984 211.640891 
L 96.035811 244.030097 
L 96.210639 241.516047 
L 96.385466 229.648465 
L 96.560294 232.662152 
L 96.735121 238.459534 
L 96.909949 237.564945 
L 97.259603 240.667456 
L 97.434431 235.106411 
L 97.609258 233.461572 
L 97.784086 243.835 
L 97.958913 232.695461 
L 98.308568 239.67294 
L 98.483396 228.593674 
L 98.658223 239.377916 
L 98.83305 242.323398 
L 99.007878 222.014319 
L 99.182705 238.695871 
L 99.357533 238.808487 
L 99.53236 238.724421 
L 99.707188 238.207336 
L 99.882015 241.316192 
L 100.056842 234.76856 
L 100.23167 236.95269 
L 100.406497 231.940453 
L 100.581325 241.9681 
L 100.93098 235.360195 
L 101.105807 240.467601 
L 101.280634 239.66025 
L 101.455462 230.968142 
L 101.630289 241.666732 
L 101.805117 240.927585 
L 101.979944 209.988121 
L 102.154772 223.105591 
L 102.329599 226.595124 
L 102.679254 203.683171 
L 102.854081 212.340384 
L 103.028909 240.829244 
L 103.203736 229.204342 
L 103.378564 238.242231 
L 103.553391 232.260855 
L 103.728219 232.628843 
L 103.903046 237.563359 
L 104.427528 203.451593 
L 104.602356 209.434555 
L 104.777183 209.442485 
L 104.952011 210.018258 
L 105.126838 208.34011 
L 105.301665 224.994697 
L 105.65132 217.750745 
L 105.826148 219.219521 
L 106.175803 237.07641 
L 106.525457 176.815357 
L 106.700285 192.288261 
L 106.875112 181.854559 
L 107.224767 235.783697 
L 107.399595 231.236202 
L 107.574422 229.769012 
L 107.74925 233.978657 
L 108.098904 224.077902 
L 108.273732 228.297064 
L 108.448559 204.937816 
L 108.798214 209.260078 
L 108.973042 229.840389 
L 109.147869 202.666448 
L 109.322696 211.885158 
L 109.497524 239.920379 
L 109.672351 220.732709 
L 109.847179 235.166684 
L 110.022006 232.259269 
L 110.196834 231.458263 
L 110.371661 239.412811 
L 110.546488 223.51006 
L 110.721316 230.795252 
L 110.896143 228.097209 
L 111.070971 237.699768 
L 111.245798 239.454051 
L 111.420626 228.427128 
L 111.595453 237.122409 
L 111.770281 216.029771 
L 112.119935 239.547634 
L 112.294763 223.384754 
L 112.46959 185.570911 
L 112.644418 186.019792 
L 112.819245 196.24095 
L 113.1689 176.834391 
L 113.343727 199.885925 
L 113.518555 182.349438 
L 113.693382 234.34823 
L 113.86821 239.764936 
L 114.043037 235.111169 
L 114.217865 238.383399 
L 114.392692 239.141579 
L 114.567519 229.210687 
L 114.917174 206.500175 
L 115.092002 203.719652 
L 115.266829 230.922144 
L 115.441657 231.367852 
L 115.616484 221.60192 
L 115.791311 226.231895 
L 115.966139 246.680555 
L 116.140966 227.802185 
L 116.315794 240.924413 
L 116.490621 241.346329 
L 116.665449 245.099163 
L 116.840276 222.375962 
L 117.015104 237.701354 
L 117.189931 239.133648 
L 117.364758 226.723602 
L 117.539586 236.121547 
L 117.714413 223.11828 
L 117.889241 222.896219 
L 118.064068 232.857248 
L 118.238896 227.234343 
L 118.58855 237.477707 
L 118.763378 235.344333 
L 118.938205 238.377054 
L 119.113033 237.598254 
L 119.462688 215.893362 
L 119.637515 217.568338 
L 119.812342 204.814096 
L 120.161997 213.031945 
L 120.336825 211.069876 
L 120.511652 212.487896 
L 120.68648 216.435826 
L 120.861307 208.558999 
L 121.036135 210.373556 
L 121.210962 214.442034 
L 121.385789 209.385384 
L 121.560617 209.834265 
L 121.735444 239.233576 
L 121.910272 215.726816 
L 122.085099 212.407002 
L 122.259927 220.253691 
L 122.434754 241.698455 
L 122.609581 231.347232 
L 122.784409 231.397989 
L 122.959236 237.928173 
L 123.134064 232.425815 
L 123.308891 233.217305 
L 123.483719 237.039929 
L 123.658546 219.454271 
L 124.008201 233.337852 
L 124.183028 217.866534 
L 124.532683 232.457538 
L 124.707511 223.476751 
L 124.882338 203.829097 
L 125.231993 237.6617 
L 125.40682 220.409134 
L 125.581648 236.245267 
L 125.756475 236.272232 
L 125.931303 237.222336 
L 126.10613 241.355846 
L 126.455785 236.131064 
L 126.630612 241.02434 
L 126.80544 232.441677 
L 127.155095 244.225193 
L 127.329922 228.466782 
L 127.50475 239.826796 
L 127.679577 232.60505 
L 128.029232 243.601836 
L 128.204059 231.780252 
L 128.378887 240.778487 
L 128.728542 236.248439 
L 128.903369 244.19347 
L 129.427851 235.444261 
L 129.602679 238.405605 
L 129.777506 237.985275 
L 129.952334 238.26761 
L 130.301989 225.924182 
L 130.476816 242.922963 
L 130.826471 226.931388 
L 131.001298 244.371119 
L 131.176126 238.334228 
L 131.350953 238.113753 
L 131.525781 242.905516 
L 131.700608 244.417118 
L 131.875435 241.558873 
L 132.050263 248.027198 
L 132.22509 240.402569 
L 132.399918 237.637908 
L 132.574745 246.247536 
L 132.749573 232.70815 
L 132.9244 239.747489 
L 133.099227 240.902207 
L 133.274055 228.178102 
L 133.448882 233.47902 
L 133.62371 230.858698 
L 133.798537 221.858876 
L 133.973365 238.261265 
L 134.148192 231.30282 
L 134.32302 233.967554 
L 134.497847 240.780073 
L 134.672674 232.01976 
L 134.847502 235.745629 
L 135.022329 241.89831 
L 135.197157 225.671984 
L 135.371984 230.111621 
L 135.546812 229.523159 
L 135.721639 235.81542 
L 135.896466 236.62753 
L 136.071294 223.433924 
L 136.246121 232.24658 
L 136.420949 225.730671 
L 136.595776 233.501226 
L 136.770604 219.684263 
L 136.945431 223.655986 
L 137.120258 231.537571 
L 137.295086 228.304995 
L 137.469913 229.09807 
L 137.644741 226.090728 
L 137.819568 226.734705 
L 137.994396 223.032628 
L 138.169223 233.632876 
L 138.344051 234.421193 
L 138.518878 226.89332 
L 138.693705 230.198859 
L 138.868533 225.757636 
L 139.218188 230.654084 
L 139.393015 214.960705 
L 139.567843 219.742951 
L 139.917497 232.297337 
L 140.092325 231.079173 
L 140.267152 222.044456 
L 140.44198 227.968731 
L 140.616807 225.289721 
L 140.791635 230.898352 
L 141.141289 221.199038 
L 141.316117 231.505848 
L 141.490944 231.139447 
L 141.665772 228.650776 
L 141.840599 236.066032 
L 142.015427 219.533579 
L 142.190254 187.42988 
L 142.539909 194.345499 
L 142.714736 217.1718 
L 142.889564 218.862637 
L 143.064391 207.315457 
L 143.239219 212.148459 
L 143.414046 211.881986 
L 143.588874 212.211905 
L 143.763701 225.886114 
L 143.938528 223.798739 
L 144.113356 237.160476 
L 144.288183 230.236927 
L 144.463011 231.223513 
L 144.637838 242.383672 
L 144.812666 236.494293 
L 144.987493 241.130613 
L 145.16232 225.46737 
L 145.511975 244.715314 
L 145.686803 239.382674 
L 146.036458 242.791313 
L 146.211285 240.72773 
L 146.386112 231.816733 
L 146.735767 207.832542 
L 147.085422 245.195918 
L 147.26025 229.753151 
L 147.435077 245.988993 
L 147.784732 239.306539 
L 147.959559 244.364775 
L 148.134387 244.087198 
L 148.309214 245.216538 
L 148.658869 174.705776 
L 148.833697 193.646006 
L 149.008524 173.88415 
L 149.183351 181.267683 
L 149.358179 166.72585 
L 149.707834 196.099782 
L 149.882661 184.612876 
L 150.057489 183.910211 
L 150.407143 233.009519 
L 150.581971 237.074824 
L 150.756798 225.768739 
L 150.931626 238.251748 
L 151.106453 238.600702 
L 151.281281 235.62984 
L 151.456108 224.801187 
L 151.630936 235.628254 
L 151.805763 232.018174 
L 151.98059 232.152997 
L 152.155418 232.85249 
L 152.330245 218.602508 
L 152.505073 236.787731 
L 152.6799 228.568296 
L 152.854728 208.71127 
L 153.029555 236.348367 
L 153.37921 218.748434 
L 153.554037 217.745987 
L 153.728865 211.014361 
L 153.903692 228.576226 
L 154.07852 224.192105 
L 154.253347 214.331003 
L 154.428174 218.386792 
L 154.603002 198.176054 
L 154.777829 205.854612 
L 154.952657 219.367033 
L 155.127484 221.678055 
L 155.302312 190.556184 
L 155.477139 197.766827 
L 155.651967 192.04558 
L 155.826794 200.330047 
L 156.176449 234.874833 
L 156.351276 238.335814 
L 156.700931 220.014183 
L 156.875759 234.248303 
L 157.050586 228.660292 
L 157.225413 228.931524 
L 157.400241 224.125486 
L 157.575068 232.611395 
L 157.749896 217.319312 
L 157.924723 231.865904 
L 158.099551 235.533085 
L 158.274378 228.449334 
L 158.449205 186.225991 
L 158.624033 189.866208 
L 158.79886 197.01975 
L 158.973688 189.831313 
L 159.148515 237.366676 
L 159.49817 231.535984 
L 159.672998 238.397674 
L 159.847825 224.182588 
L 160.022652 236.138995 
L 160.372307 230.798424 
L 160.547135 226.458715 
L 160.89679 236.868624 
L 161.246444 225.635502 
L 161.421272 228.942627 
L 161.596099 221.038836 
L 161.770927 224.893184 
L 161.945754 224.361823 
L 162.120582 219.156075 
L 162.295409 226.354029 
L 162.470236 213.039876 
L 162.645064 221.990527 
L 162.819891 218.965737 
L 162.994719 212.292799 
L 163.169546 224.220655 
L 163.344374 215.975842 
L 163.519201 228.498505 
L 163.694028 223.399029 
L 163.868856 226.690293 
L 164.043683 226.458715 
L 164.218511 228.254238 
L 164.393338 197.455941 
L 164.568166 197.508284 
L 164.742993 192.873551 
L 165.092648 225.941629 
L 165.442303 197.77793 
L 165.61713 225.619641 
L 165.791958 225.126348 
L 165.966785 227.762531 
L 166.141613 221.651091 
L 166.31644 227.35489 
L 166.491267 227.488127 
L 166.666095 223.375237 
L 166.840922 230.520848 
L 167.01575 222.379134 
L 167.190577 222.683675 
L 167.365405 226.925043 
L 167.715059 228.31927 
L 168.064714 221.679641 
L 168.239542 233.496467 
L 168.414369 228.455679 
L 168.764024 235.599704 
L 168.938852 224.633055 
L 169.113679 230.313062 
L 169.463334 218.359827 
L 169.638161 228.297064 
L 169.812989 229.396267 
L 169.987816 235.016 
L 170.162644 228.119415 
L 170.337471 231.659704 
L 170.687126 215.641164 
L 170.861953 233.770871 
L 171.211608 229.654809 
L 171.386436 236.527602 
L 171.73609 227.959214 
L 171.910918 213.060496 
L 172.085745 222.745535 
L 172.260573 217.555648 
L 172.610228 233.575775 
L 172.785055 215.03684 
L 172.959883 177.562434 
L 173.13471 198.007922 
L 173.309537 205.196359 
L 173.659192 237.777489 
L 173.83402 235.656805 
L 174.008847 235.409365 
L 174.183675 235.517224 
L 174.358502 245.011924 
L 174.533329 232.005485 
L 174.708157 231.556604 
L 174.882984 235.046137 
L 175.057812 235.935968 
L 175.232639 242.147335 
L 175.407467 234.414849 
L 175.582294 242.894413 
L 175.757121 244.924686 
L 176.106776 235.521982 
L 176.281604 241.330468 
L 176.456431 232.178376 
L 176.631259 197.086368 
L 176.806086 191.017754 
L 176.980913 215.515858 
L 177.155741 185.867521 
L 177.330568 197.156159 
L 177.505396 185.171201 
L 177.680223 207.615239 
L 177.855051 180.566604 
L 178.029878 211.15077 
L 178.204706 196.210813 
L 178.379533 191.959928 
L 178.904015 205.724547 
L 179.078843 225.814737 
L 179.25367 230.156033 
L 179.428498 237.918657 
L 179.603325 225.562539 
L 179.778152 239.868036 
L 179.95298 234.392643 
L 180.302635 243.202126 
L 180.477462 230.98559 
L 180.65229 241.785693 
L 180.827117 230.734978 
L 181.001944 237.685492 
L 181.176772 237.614116 
L 181.351599 234.460847 
L 181.526427 236.851177 
L 181.701254 234.468778 
L 181.876082 193.36843 
L 182.050909 179.626017 
L 182.225737 199.931923 
L 182.400564 181.484986 
L 182.575391 234.887522 
L 182.750219 236.7798 
L 182.925046 233.766113 
L 183.099874 235.434744 
L 183.274701 239.258954 
L 183.449529 229.22179 
L 183.624356 240.210645 
L 183.799183 235.314196 
L 183.974011 236.208786 
L 184.148838 224.826565 
L 184.323666 236.275404 
L 184.498493 226.74898 
L 184.848148 238.145476 
L 185.022975 234.121411 
L 185.197803 233.540879 
L 185.547458 243.658937 
L 185.722285 233.255372 
L 185.897113 241.349501 
L 186.07194 240.164647 
L 186.246768 227.109037 
L 186.421595 244.56463 
L 186.596422 234.444986 
L 186.77125 241.236885 
L 186.946077 239.078133 
L 187.120905 240.137682 
L 187.295732 239.579357 
L 187.47056 245.597214 
L 187.645387 228.668223 
L 187.820214 240.294711 
L 187.995042 235.555291 
L 188.169869 236.446708 
L 188.344697 238.951241 
L 188.519524 238.285057 
L 188.694352 227.03766 
L 188.869179 236.050171 
L 189.044006 235.587014 
L 189.218834 235.840799 
L 189.393661 239.925138 
L 189.568489 230.018038 
L 189.743316 237.03517 
L 189.918144 223.549714 
L 190.092971 241.782521 
L 190.267799 228.198722 
L 190.617453 240.199542 
L 190.792281 234.31968 
L 190.967108 234.300646 
L 191.141936 239.31447 
L 191.316763 236.468914 
L 191.491591 239.536531 
L 191.666418 240.418431 
L 191.841245 226.81084 
L 192.016073 184.646185 
L 192.1909 187.467948 
L 192.365728 197.790619 
L 192.540555 195.850756 
L 192.715383 229.927627 
L 192.89021 230.655671 
L 193.065037 217.760262 
L 193.239865 229.224962 
L 193.414692 222.923184 
L 193.58952 236.197683 
L 193.764347 237.387296 
L 193.939175 220.007838 
L 194.114002 236.253198 
L 194.288829 230.179825 
L 194.463657 238.094719 
L 194.638484 229.212273 
L 194.813312 226.771186 
L 195.162967 239.089236 
L 195.337794 229.416887 
L 195.512622 237.542739 
L 195.687449 233.387023 
L 195.862276 234.259406 
L 196.037104 238.973447 
L 196.211931 229.050486 
L 196.386759 226.336581 
L 196.561586 233.339438 
L 196.736414 226.414302 
L 196.911241 231.039519 
L 197.086068 239.422328 
L 197.260896 230.776218 
L 197.435723 240.058374 
L 197.610551 241.447843 
L 197.785378 235.041378 
L 197.960206 242.082303 
L 198.135033 241.579493 
L 198.30986 237.155718 
L 198.484688 211.835987 
L 198.659515 231.099793 
L 198.834343 237.501499 
L 199.00917 220.818361 
L 199.183998 246.902616 
L 199.358825 211.783644 
L 199.533653 212.142115 
L 199.70848 206.630239 
L 199.883307 206.130602 
L 200.058135 203.767237 
L 200.232962 224.119142 
L 200.40779 197.421046 
L 200.582617 195.852343 
L 200.757445 199.989025 
L 200.932272 200.225361 
L 201.107099 211.561583 
L 201.281927 199.076988 
L 201.456754 211.280835 
L 201.631582 235.885211 
L 201.806409 239.500049 
L 201.981237 233.885074 
L 202.330891 241.211506 
L 202.505719 227.895768 
L 202.680546 241.225782 
L 202.855374 238.561048 
L 203.205029 245.868446 
L 203.379856 236.935243 
L 203.554684 240.091684 
L 203.729511 246.531457 
L 203.904338 228.847458 
L 204.253993 244.94372 
L 204.603648 194.881618 
L 204.778476 188.936724 
L 204.953303 206.178186 
L 205.12813 194.410531 
L 205.302958 233.453641 
L 205.477785 234.398987 
L 205.652613 237.415847 
L 205.82744 244.748623 
L 206.002268 246.889927 
L 206.351922 233.217305 
L 206.52675 234.925589 
L 206.701577 226.163691 
L 206.876405 210.402107 
L 207.051232 241.010065 
L 207.22606 227.908457 
L 207.400887 238.865589 
L 207.575714 238.088375 
L 207.750542 231.144205 
L 207.925369 236.624357 
L 208.100197 230.016452 
L 208.275024 237.707698 
L 208.449852 230.844423 
L 208.799507 234.184857 
L 208.974334 227.727636 
L 209.149161 168.34531 
L 209.323989 212.054876 
L 209.673644 235.817006 
L 209.848471 230.960212 
L 210.023299 222.618643 
L 210.198126 231.935694 
L 210.372953 220.959529 
L 210.547781 225.67357 
L 210.722608 202.642656 
L 210.897436 213.610891 
L 211.072263 236.624357 
L 211.247091 226.783876 
L 211.596745 239.799832 
L 211.771573 233.574189 
L 211.9464 235.615565 
L 212.121228 235.317369 
L 212.296055 231.589914 
L 212.470883 238.488085 
L 212.64571 225.625985 
L 212.820538 228.971178 
L 212.995365 235.717079 
L 213.170192 212.543411 
L 213.34502 206.159153 
L 213.519847 227.427853 
L 213.694675 217.568338 
L 213.869502 230.669946 
L 214.04433 209.017397 
L 214.219157 207.148911 
L 214.393984 208.451141 
L 214.743639 232.62567 
L 214.918467 229.891146 
L 215.268122 238.289816 
L 215.442949 231.252063 
L 215.617776 234.976346 
L 215.792604 229.107587 
L 216.142259 240.527875 
L 216.317086 237.376193 
L 216.666741 224.726638 
L 216.841569 243.07682 
L 217.016396 235.152409 
L 217.191223 232.327474 
L 217.366051 238.099478 
L 217.540878 229.318545 
L 217.715706 229.85625 
L 217.890533 210.920778 
L 218.065361 223.129383 
L 218.240188 243.102198 
L 218.415015 220.456719 
L 218.589843 244.375878 
L 218.939498 230.300373 
L 219.289153 235.644116 
L 219.46398 215.117734 
L 219.813635 200.877269 
L 219.988462 205.691238 
L 220.16329 204.752237 
L 220.338117 208.84292 
L 220.512945 206.983951 
L 220.687772 206.409764 
L 220.8626 220.521751 
L 221.037427 211.864538 
L 221.212254 219.449513 
L 221.387082 234.032586 
L 221.561909 226.541195 
L 221.736737 241.108406 
L 222.086392 226.273135 
L 222.436046 204.615828 
L 222.785701 233.735976 
L 222.960529 227.779979 
L 223.135356 237.100203 
L 223.310184 236.59422 
L 223.485011 233.574189 
L 223.834666 235.469639 
L 224.009493 189.986756 
L 224.184321 180.192273 
L 224.359148 204.349354 
L 224.533976 188.184888 
L 224.708803 204.401697 
L 224.88363 179.172377 
L 225.058458 197.616143 
L 225.233285 182.206684 
L 225.408113 231.967418 
L 225.58294 237.120823 
L 225.932595 229.635775 
L 226.107423 230.279753 
L 226.457077 173.654158 
L 226.631905 199.002439 
L 226.806732 180.996451 
L 226.98156 225.167588 
L 227.156387 228.688843 
L 227.331215 221.249794 
L 227.680869 242.455049 
L 227.855697 227.895768 
L 228.030524 239.885484 
L 228.205352 231.40592 
L 228.380179 232.846145 
L 228.555007 243.501908 
L 228.904661 177.12307 
L 229.079489 198.480595 
L 229.254316 183.493053 
L 229.429144 198.74231 
L 229.603971 243.64149 
L 229.778799 243.122818 
L 229.953626 234.322852 
L 230.128454 237.942449 
L 230.303281 238.013826 
L 230.478108 232.354438 
L 230.652936 231.093448 
L 231.002591 239.806176 
L 231.352246 216.386655 
L 231.7019 238.772006 
L 231.876728 243.34488 
L 232.051555 239.806176 
L 232.226383 242.900757 
L 232.576038 216.480238 
L 232.750865 212.172251 
L 232.925692 218.719883 
L 233.10052 220.407548 
L 233.275347 217.498547 
L 233.450175 216.572235 
L 233.625002 233.818456 
L 233.974657 247.859066 
L 234.149485 241.338398 
L 234.324312 247.719484 
L 234.499139 242.152094 
L 234.673967 241.397086 
L 234.848794 247.430805 
L 235.023622 242.199678 
L 235.198449 232.440091 
L 235.373277 241.033857 
L 235.548104 233.751838 
L 235.722931 234.354575 
L 235.897759 237.379365 
L 236.072586 228.506436 
L 236.247414 239.461982 
L 236.422241 231.978521 
L 236.597069 230.918972 
L 236.771896 235.667908 
L 236.946723 219.446341 
L 237.121551 177.732152 
L 237.296378 190.892448 
L 237.471206 176.886734 
L 237.646033 196.489975 
L 237.820861 179.468988 
L 237.995688 192.204195 
L 238.170515 194.491425 
L 238.345343 225.738602 
L 238.694998 200.964508 
L 238.869825 212.619546 
L 239.044653 207.54069 
L 239.21948 205.975159 
L 239.394308 220.724778 
L 239.569135 221.213313 
L 239.743962 216.142388 
L 239.91879 205.347043 
L 240.093617 204.155844 
L 240.268445 204.736375 
L 240.443272 211.35697 
L 240.792927 204.620586 
L 240.967754 206.825336 
L 241.142582 226.598296 
L 241.492237 171.3701 
L 241.667064 196.050611 
L 241.841892 179.438851 
L 242.016719 229.047313 
L 242.191546 237.090686 
L 242.366374 226.956766 
L 242.716029 231.938867 
L 242.890856 230.663601 
L 243.065684 183.999035 
L 243.240511 180.285855 
L 243.415339 199.107125 
L 243.590166 204.409628 
L 243.764993 233.312474 
L 243.939821 229.424817 
L 244.114648 237.905967 
L 244.289476 240.508841 
L 244.464303 231.272683 
L 244.639131 230.803183 
L 244.813958 238.894139 
L 244.988785 212.993878 
L 245.163613 239.573012 
L 245.33844 235.019172 
L 245.513268 236.42133 
L 245.688095 238.79104 
L 245.862923 233.402884 
L 246.03775 218.64692 
L 246.212577 236.716354 
L 246.387405 229.40737 
L 246.562232 244.049131 
L 246.911887 233.801008 
L 247.086715 241.701627 
L 247.261542 236.113617 
L 247.43637 235.858246 
L 247.611197 241.950653 
L 247.786024 223.776533 
L 247.960852 239.024204 
L 248.135679 235.625082 
L 248.310507 222.716984 
L 248.485334 246.042923 
L 248.660162 246.958132 
L 248.834989 218.537476 
L 249.009816 213.136631 
L 249.184644 214.204111 
L 249.359471 237.054204 
L 249.534299 216.610302 
L 249.709126 214.979739 
L 250.058781 242.036305 
L 250.233608 244.529734 
L 250.408436 223.535438 
L 250.583263 239.875967 
L 250.758091 236.064446 
L 250.932918 225.822668 
L 251.107746 227.6515 
L 251.282573 223.80667 
L 251.4574 201.919371 
L 251.632228 208.519345 
L 251.807055 231.459849 
L 252.15671 219.663643 
L 252.331538 234.860557 
L 252.681193 242.937239 
L 253.205675 214.665681 
L 253.380502 214.564167 
L 253.55533 211.317316 
L 253.730157 236.275404 
L 253.904985 229.174205 
L 254.079812 231.305992 
L 254.254639 224.066799 
L 254.429467 234.425952 
L 254.604294 222.358514 
L 254.779122 198.220466 
L 254.953949 222.3601 
L 255.128777 227.156621 
L 255.303604 235.951829 
L 255.478431 231.727909 
L 255.653259 234.17534 
L 255.828086 231.724736 
L 256.002914 224.085833 
L 256.177741 233.367989 
L 256.352569 227.779979 
L 256.702224 235.71232 
L 256.877051 186.892175 
L 257.051878 175.027764 
L 257.226706 194.954581 
L 257.401533 179.048658 
L 257.576361 175.067418 
L 257.751188 192.970306 
L 257.926016 192.023374 
L 258.27567 229.531089 
L 258.450498 216.570649 
L 258.625325 232.05307 
L 258.800153 232.392506 
L 258.97498 185.739043 
L 259.149808 180.87749 
L 259.324635 202.580796 
L 259.499462 194.769001 
L 259.67429 240.618286 
L 259.849117 239.297022 
L 260.023945 242.455049 
L 260.198772 241.590596 
L 260.3736 239.098753 
L 260.548427 242.275814 
L 260.723255 241.628664 
L 260.898082 216.516719 
L 261.072909 223.936734 
L 261.247737 241.728592 
L 261.422564 230.595397 
L 261.597392 237.677562 
L 261.772219 238.844969 
L 261.947047 228.830011 
L 262.121874 235.314196 
L 262.296701 229.402611 
L 262.471529 229.841975 
L 262.646356 232.980968 
L 262.821184 225.218344 
L 262.996011 232.904833 
L 263.170839 221.609851 
L 263.345666 222.923184 
L 263.520493 226.83146 
L 263.695321 215.395311 
L 263.870148 175.35927 
L 264.044976 176.374407 
L 264.219803 173.909528 
L 264.569458 220.950012 
L 264.744286 226.998006 
L 265.09394 208.736648 
L 265.268768 219.79688 
L 265.443595 219.855568 
L 265.618423 222.843876 
L 265.79325 220.812017 
L 265.968078 196.380531 
L 266.142905 224.828151 
L 266.317732 219.048217 
L 266.49256 203.391319 
L 266.842215 210.563894 
L 267.017042 203.86082 
L 267.19187 205.186842 
L 267.366697 198.663002 
L 267.716352 225.102555 
L 267.891179 220.183901 
L 268.066007 201.430836 
L 268.240834 203.388147 
L 268.415662 200.533075 
L 268.590489 201.303944 
L 268.765316 199.820893 
L 268.940144 201.905095 
L 269.114971 214.589546 
L 269.464626 196.79293 
L 269.639454 198.003164 
L 269.989109 236.334092 
L 270.163936 231.623223 
L 270.338763 215.733161 
L 270.513591 217.041735 
L 270.688418 202.583968 
L 270.863246 230.879318 
L 271.038073 230.386025 
L 271.212901 231.613706 
L 271.387728 231.884938 
L 271.562555 226.241412 
L 271.737383 238.151821 
L 272.087038 228.603191 
L 272.261865 235.276129 
L 272.436693 205.17098 
L 272.61152 228.807804 
L 272.786347 229.277305 
L 273.136002 235.084204 
L 273.31083 228.658706 
L 273.485657 227.833908 
L 273.835312 210.168943 
L 274.01014 238.389743 
L 274.184967 232.132377 
L 274.359794 238.372296 
L 274.709449 204.049572 
L 274.884277 225.560953 
L 275.408759 239.952102 
L 275.583586 208.325835 
L 275.758414 197.887374 
L 275.933241 231.84687 
L 276.108069 230.376508 
L 276.282896 244.946892 
L 276.457724 236.04224 
L 276.632551 239.496877 
L 276.807378 236.53236 
L 276.982206 200.304669 
L 277.157033 234.711459 
L 277.331861 232.903247 
L 277.506688 218.79126 
L 278.031171 247.673486 
L 278.205998 199.446561 
L 278.380825 245.52901 
L 278.555653 244.889791 
L 278.73048 221.26407 
L 279.080135 244.401256 
L 279.254963 231.581983 
L 279.42979 208.203701 
L 279.604617 212.064393 
L 279.779445 210.703476 
L 280.1291 221.568611 
L 280.303927 223.310205 
L 280.653582 184.303576 
L 281.003237 233.498053 
L 281.178064 216.580165 
L 281.352892 240.400983 
L 281.702547 235.65046 
L 281.877374 239.06703 
L 282.052201 237.637908 
L 282.227029 189.0081 
L 282.401856 178.274616 
L 282.576684 202.200119 
L 282.751511 200.006472 
L 282.926339 243.533632 
L 283.275994 236.457811 
L 283.450821 241.359018 
L 283.800476 230.614431 
L 283.975303 216.778434 
L 284.150131 235.904245 
L 284.324958 238.551531 
L 284.499786 229.496194 
L 284.674613 238.094719 
L 284.84944 234.82249 
L 285.199095 200.945474 
L 285.373923 233.596395 
L 285.54875 240.13451 
L 285.723578 228.435059 
L 285.898405 230.725461 
L 286.073232 227.724463 
L 286.24806 230.715944 
L 286.422887 239.17013 
L 286.597715 213.177871 
L 286.772542 235.940726 
L 286.94737 231.156894 
L 287.297025 235.299921 
L 287.471852 223.824118 
L 287.646679 244.271192 
L 287.821507 247.249984 
L 287.996334 227.150277 
L 288.171162 243.984098 
L 288.345989 245.018269 
L 288.520817 235.066757 
L 288.695644 244.444082 
L 289.045299 241.316192 
L 289.220126 246.383945 
L 289.394954 246.628212 
L 289.744609 188.654389 
L 289.919436 198.421907 
L 290.094263 230.601741 
L 290.269091 233.069793 
L 290.443918 232.711322 
L 290.618746 214.902018 
L 290.968401 238.621321 
L 291.143228 228.888698 
L 291.318056 236.303955 
L 291.492883 229.148827 
L 291.66771 230.257547 
L 291.842538 242.226643 
L 292.017365 228.831597 
L 292.192193 226.536436 
L 292.541848 182.167031 
L 292.716675 205.486625 
L 292.891502 179.418231 
L 293.06633 245.517907 
L 293.415985 236.340436 
L 293.76564 240.564357 
L 293.940467 235.066757 
L 294.115294 241.484324 
L 294.290122 233.721701 
L 294.464949 237.825074 
L 294.639777 239.29385 
L 294.814604 227.342201 
L 294.989432 223.17221 
L 295.164259 232.297337 
L 295.339087 230.397128 
L 295.513914 234.576636 
L 295.688741 235.926451 
L 295.863569 229.310614 
L 296.038396 235.937554 
L 296.213224 226.078038 
L 296.388051 224.58547 
L 296.562879 235.107997 
L 296.912533 173.917459 
L 297.087361 204.038469 
L 297.262188 184.151306 
L 297.437016 204.357285 
L 297.611843 172.534335 
L 297.786671 199.381529 
L 297.961498 176.101589 
L 298.136325 237.089099 
L 298.311153 239.255782 
L 298.48598 234.690839 
L 298.660808 239.182819 
L 298.835635 240.364502 
L 299.010463 228.95373 
L 299.18529 235.661563 
L 299.360117 233.123722 
L 299.534945 236.797248 
L 299.709772 243.444807 
L 300.059427 225.216758 
L 300.234255 240.519944 
L 300.409082 241.109993 
L 300.58391 236.196096 
L 300.758737 238.905243 
L 300.933564 245.143575 
L 301.108392 236.237336 
L 301.283219 244.20616 
L 301.458047 242.588285 
L 301.632874 235.161926 
L 301.807702 234.908142 
L 301.982529 225.483232 
L 302.157356 181.220098 
L 302.332184 177.03266 
L 302.507011 177.836838 
L 302.681839 215.515858 
L 302.856666 216.477066 
L 303.031494 221.985768 
L 303.206321 194.924444 
L 303.730803 240.813382 
L 303.905631 236.467328 
L 304.080458 227.789495 
L 304.255286 240.516772 
L 304.430113 232.559052 
L 304.604941 219.444754 
L 304.779768 228.262168 
L 304.954595 245.941409 
L 305.129423 247.059645 
L 305.30425 221.260897 
L 305.479078 245.719348 
L 305.828733 231.512192 
L 306.00356 222.777258 
L 306.178387 247.037439 
L 306.353215 223.879633 
L 306.528042 246.732898 
L 306.70287 246.050853 
L 307.052525 233.477433 
L 307.227352 236.583117 
L 307.402179 229.058416 
L 307.577007 229.886387 
L 307.751834 206.100465 
L 307.926662 213.739369 
L 308.101489 243.392464 
L 308.276317 218.282106 
L 308.625972 235.742457 
L 308.800799 228.622225 
L 308.975626 231.491572 
L 309.150454 244.377464 
L 309.325281 230.208376 
L 309.500109 244.199815 
L 309.849764 207.356697 
L 310.024591 227.73398 
L 310.199418 212.075496 
L 310.374246 209.558274 
L 310.549073 230.665187 
L 310.723901 233.893005 
L 310.898728 224.084246 
L 311.073556 236.391193 
L 311.248383 235.566394 
L 311.42321 223.878047 
L 311.598038 183.769043 
L 311.772865 176.935904 
L 311.947693 205.226496 
L 312.12252 187.66463 
L 312.297348 232.230719 
L 312.472175 230.217893 
L 312.647002 226.271549 
L 312.82183 228.539745 
L 312.996657 235.120686 
L 313.171485 224.777394 
L 313.346312 232.950831 
L 313.52114 226.518988 
L 313.870795 236.424502 
L 314.045622 227.348545 
L 314.220449 233.534535 
L 314.395277 228.626983 
L 314.570104 232.373472 
L 314.744932 240.696007 
L 314.919759 222.967596 
L 315.269414 239.331917 
L 315.444241 231.264753 
L 315.619069 228.466782 
L 315.793896 236.388021 
L 316.143551 214.172388 
L 316.318379 210.026189 
L 316.668033 214.392863 
L 316.842861 215.598338 
L 317.017688 214.210456 
L 317.367343 241.282883 
L 317.542171 241.030685 
L 317.716998 215.999634 
L 317.891826 238.678423 
L 318.066653 234.076999 
L 318.24148 235.452192 
L 318.416308 243.747762 
L 318.591135 235.993069 
L 318.765963 237.171579 
L 318.94079 239.799832 
L 319.115618 232.18472 
L 319.290445 241.595355 
L 319.6401 235.109583 
L 319.814927 246.483873 
L 319.989755 241.722247 
L 320.164582 227.903698 
L 320.33941 242.769107 
L 320.514237 243.971409 
L 320.689064 227.234343 
L 320.863892 241.703213 
L 321.213547 232.172031 
L 321.388374 232.941314 
L 321.912857 219.831775 
L 322.087684 214.145423 
L 322.262511 218.899118 
L 322.437339 219.281381 
L 322.786994 213.677509 
L 323.136649 232.617739 
L 323.311476 216.838708 
L 323.486303 190.684662 
L 323.661131 181.426298 
L 324.010786 243.198954 
L 324.360441 228.920421 
L 324.535268 228.704705 
L 324.710095 210.958846 
L 325.05975 231.827836 
L 325.234578 225.637088 
L 325.409405 234.916072 
L 325.584233 228.119415 
L 325.75906 233.377506 
L 325.933888 222.04287 
L 326.283542 224.518852 
L 326.633197 212.506929 
L 326.808025 223.326066 
L 326.982852 223.486267 
L 327.15768 211.142839 
L 327.332507 224.937596 
L 327.682162 211.73606 
L 327.856989 211.054015 
L 328.031817 229.328062 
L 328.206644 228.580985 
L 328.381472 218.554924 
L 328.556299 201.253187 
L 328.905954 224.211139 
L 329.255609 206.022744 
L 329.430436 217.278072 
L 329.605264 220.07287 
L 329.780091 233.266475 
L 329.954918 221.475028 
L 330.129746 220.610575 
L 330.479401 224.672708 
L 330.654228 232.181548 
L 330.829056 219.798466 
L 331.003883 226.65857 
L 331.178711 225.635502 
L 331.353538 229.226548 
L 331.528365 238.98455 
L 331.703193 226.108175 
L 331.87802 232.256097 
L 332.052848 231.060139 
L 332.227675 227.440542 
L 332.402503 226.457129 
L 332.57733 237.42695 
L 332.752157 209.391729 
L 332.926985 211.204699 
L 333.101812 214.502307 
L 333.27664 227.112209 
L 333.451467 226.498368 
L 333.626295 233.709011 
L 333.801122 218.861051 
L 334.150777 236.811523 
L 334.325604 217.197178 
L 334.500432 228.561951 
L 334.675259 224.863047 
L 334.850087 241.425637 
L 335.024914 238.976619 
L 335.199742 209.077671 
L 335.374569 229.375647 
L 335.549396 225.779842 
L 335.899051 241.747625 
L 336.073879 237.601426 
L 336.248706 236.273818 
L 336.423534 239.147924 
L 336.598361 223.376823 
L 336.948016 237.53798 
L 337.297671 186.110202 
L 337.472498 206.190876 
L 337.647326 199.563936 
L 337.822153 203.480143 
L 337.99698 232.679599 
L 338.171808 234.573464 
L 338.346635 221.922322 
L 338.521463 232.238649 
L 338.69629 231.209237 
L 338.871118 214.927396 
L 339.045945 224.009697 
L 339.220773 216.148732 
L 339.3956 230.54464 
L 339.570427 229.174205 
L 339.745255 183.098101 
L 339.920082 180.181169 
L 340.619392 239.463568 
L 340.794219 225.212 
L 340.969047 227.521436 
L 341.143874 240.001273 
L 341.318702 218.321759 
L 341.493529 226.847322 
L 341.668357 220.764432 
L 341.843184 176.818529 
L 342.192839 181.692772 
L 342.542494 237.904381 
L 342.717321 229.326476 
L 343.066976 240.188439 
L 343.241803 218.754779 
L 343.416631 235.233303 
L 343.591458 230.673118 
L 343.766286 220.746984 
L 343.941113 228.11307 
L 344.115941 229.832458 
L 344.640423 220.409134 
L 344.81525 222.666227 
L 344.990078 209.412349 
L 345.164905 225.703707 
L 345.339733 225.15014 
L 345.51456 220.861187 
L 345.689388 227.887837 
L 345.864215 222.672572 
L 346.039042 224.991525 
L 346.21387 222.383892 
L 347.088007 237.53798 
L 347.262834 232.406781 
L 347.437662 237.019309 
L 347.612489 237.840935 
L 347.787317 227.101106 
L 347.962144 234.621048 
L 348.311799 223.06911 
L 348.486627 238.759317 
L 348.836281 213.123942 
L 349.011109 240.240782 
L 349.360764 227.316822 
L 349.535591 235.633013 
L 349.710419 220.01101 
L 349.885246 234.651185 
L 350.060073 219.47965 
L 350.234901 182.81418 
L 350.409728 181.929108 
L 350.584556 194.770588 
L 350.759383 187.820073 
L 350.934211 231.956314 
L 351.109038 215.330278 
L 351.283865 215.958394 
L 351.458693 224.306308 
L 351.63352 197.509871 
L 351.808348 198.840651 
L 351.983175 195.135402 
L 352.158003 216.394586 
L 352.33283 214.676784 
L 352.507658 220.44403 
L 352.682485 220.639126 
L 352.857312 212.581478 
L 353.03214 225.892459 
L 353.206967 222.128522 
L 353.381795 215.480963 
L 353.556622 225.081935 
L 353.73145 196.629557 
L 353.906277 215.097114 
L 354.081104 218.783329 
L 354.255932 214.90519 
L 354.430759 221.619368 
L 354.605587 209.068154 
L 354.780414 222.988216 
L 354.955242 192.448462 
L 355.130069 224.282515 
L 355.304896 218.58506 
L 355.479724 221.278345 
L 355.654551 203.994056 
L 355.829379 159.489828 
L 356.004206 183.88166 
L 356.179034 168.010632 
L 356.528689 231.943625 
L 356.878343 230.325751 
L 357.053171 227.716533 
L 357.227998 231.177514 
L 357.402826 226.184311 
L 357.577653 232.505123 
L 357.752481 231.448746 
L 357.927308 228.490574 
L 358.102135 231.386886 
L 358.276963 225.754464 
L 358.45179 207.876954 
L 358.626618 201.78772 
L 358.801445 204.864853 
L 358.976273 210.981052 
L 359.1511 206.04495 
L 359.675582 236.178649 
L 359.85041 227.729222 
L 360.025237 237.601426 
L 360.200065 230.739737 
L 360.374892 232.405195 
L 360.549719 237.228681 
L 360.724547 218.604094 
L 360.899374 235.688528 
L 361.074202 209.800956 
L 361.249029 204.485763 
L 361.423857 233.821628 
L 361.598684 210.554377 
L 361.773512 210.07536 
L 361.948339 208.563758 
L 362.297994 215.303314 
L 362.472821 238.722835 
L 362.647649 240.140854 
L 362.822476 233.556741 
L 363.172131 238.527739 
L 363.346958 194.703969 
L 363.521786 179.800493 
L 363.696613 210.029361 
L 363.871441 188.16744 
L 364.046268 233.75501 
L 364.221096 242.148922 
L 364.395923 238.148648 
L 364.745578 245.205435 
L 364.920405 243.936514 
L 365.095233 234.887522 
L 365.27006 239.909276 
L 365.444888 226.216034 
L 365.794543 239.826796 
L 365.96937 244.283881 
L 366.319025 231.123585 
L 366.493852 246.220572 
L 366.66868 240.919654 
L 366.843507 241.244815 
L 367.018335 247.151642 
L 367.193162 242.467738 
L 367.367989 227.158207 
L 367.717644 223.291171 
L 367.892472 205.98309 
L 368.067299 211.31573 
L 368.242127 155.311906 
L 368.416954 171.760293 
L 368.591781 170.802258 
L 368.766609 181.898971 
L 368.941436 173.114866 
L 369.116264 196.239363 
L 369.291091 235.810662 
L 369.465919 210.224458 
L 369.640746 210.743129 
L 369.815574 214.110528 
L 369.990401 238.48174 
L 370.165228 222.861324 
L 370.340056 241.319365 
L 370.689711 233.593222 
L 371.039366 240.886345 
L 371.214193 210.890641 
L 371.38902 208.406729 
L 371.738675 240.91331 
L 372.08833 214.205697 
L 372.263158 205.718203 
L 372.612812 241.734936 
L 372.78764 224.368167 
L 372.962467 229.857837 
L 373.137295 242.830967 
L 373.312122 237.557014 
L 373.48695 237.566531 
L 373.661777 240.875242 
L 373.836604 233.36323 
L 374.011432 191.055822 
L 374.186259 178.534745 
L 374.361087 207.278975 
L 374.535914 182.468399 
L 374.710742 229.462885 
L 374.885569 239.826796 
L 375.060397 237.729905 
L 375.235224 239.133648 
L 375.410051 239.116201 
L 375.759706 241.014824 
L 375.934534 239.488946 
L 376.109361 231.856387 
L 376.284189 240.264574 
L 376.459016 233.580533 
L 376.633843 231.650187 
L 376.808671 239.877553 
L 376.983498 234.697184 
L 377.333153 239.222473 
L 377.507981 222.115833 
L 377.682808 238.291402 
L 377.857635 240.22492 
L 378.032463 233.896177 
L 378.20729 239.799832 
L 378.382118 231.88811 
L 378.556945 241.644526 
L 378.731773 226.826702 
L 378.9066 231.424954 
L 379.081428 225.483232 
L 379.256255 227.929077 
L 379.780737 239.679284 
L 379.955565 234.213408 
L 380.30522 239.304953 
L 380.480047 230.826975 
L 380.654874 228.368441 
L 380.829702 237.631563 
L 381.004529 237.208061 
L 381.179357 236.460984 
L 381.354184 244.371119 
L 381.703839 223.305446 
L 381.878666 232.812836 
L 382.228321 228.254238 
L 382.403149 236.313472 
L 382.577976 223.849496 
L 382.752804 234.749527 
L 382.927631 222.580575 
L 383.102459 234.138858 
L 383.277286 220.244175 
L 383.452113 221.441719 
L 383.801768 177.280099 
L 383.976596 208.068879 
L 384.151423 188.478326 
L 384.326251 240.044099 
L 384.675905 229.020349 
L 384.850733 233.532949 
L 385.02556 232.806491 
L 385.200388 239.166957 
L 385.550043 226.804496 
L 385.72487 239.698318 
L 385.899697 237.384124 
L 386.074525 218.761123 
L 386.249352 235.060412 
L 386.42418 235.702803 
L 386.599007 229.653223 
L 386.773835 239.682457 
L 386.948662 222.552024 
L 387.123489 240.854622 
L 387.298317 230.642981 
L 387.647972 239.38426 
L 387.822799 232.332232 
L 387.997627 232.186306 
L 388.172454 240.943447 
L 388.347282 233.085654 
L 388.522109 235.796386 
L 388.696936 235.016 
L 388.871764 217.576268 
L 389.046591 240.729316 
L 389.396246 229.18055 
L 389.571074 232.703392 
L 389.920728 217.34469 
L 390.095556 221.812878 
L 390.445211 218.903877 
L 390.794866 227.015454 
L 390.969693 217.286003 
L 391.319348 239.609494 
L 391.669003 229.859423 
L 392.018658 239.715766 
L 392.193485 233.193512 
L 392.368313 244.364775 
L 392.54314 236.735388 
L 392.717967 240.159888 
L 392.892795 234.887522 
L 393.067622 233.894591 
L 393.24245 234.464019 
L 393.417277 242.248849 
L 393.592105 234.084929 
L 393.766932 237.116064 
L 393.941759 236.540291 
L 394.116587 237.135098 
L 394.291414 242.865862 
L 394.466242 231.193376 
L 394.641069 229.719841 
L 394.815897 234.594084 
L 394.990724 230.917385 
L 395.165551 231.315509 
L 395.340379 233.218891 
L 395.515206 236.776628 
L 395.690034 210.62734 
L 395.864861 236.52443 
L 396.039689 225.437233 
L 396.214516 229.104415 
L 396.389344 229.615155 
L 396.738998 213.980464 
L 396.913826 237.396813 
L 397.088653 245.444944 
L 397.263481 225.118417 
L 397.438308 232.126033 
L 397.613136 225.154898 
L 397.787963 223.400615 
L 397.96279 233.73439 
L 398.137618 234.395815 
L 398.312445 223.643296 
L 398.487273 177.046935 
L 398.487273 177.046935 
" clip-path="url(#p76a697f6e9)" style="fill: none; stroke: #ff7f0e; stroke-width: 1.5; stroke-linecap: square"/>
   </g>
   <g id="patch_3">
    <path d="M 57.6 307.584 
L 57.6 41.472 
" style="fill: none; stroke: #000000; stroke-width: 0.8; stroke-linejoin: miter; stroke-linecap: square"/>
   </g>
   <g id="patch_4">
    <path d="M 414.72 307.584 
L 414.72 41.472 
" style="fill: none; stroke: #000000; stroke-width: 0.8; stroke-linejoin: miter; stroke-linecap: square"/>
   </g>
   <g id="patch_5">
    <path d="M 57.6 307.584 
L 414.72 307.584 
" style="fill: none; stroke: #000000; stroke-width: 0.8; stroke-linejoin: miter; stroke-linecap: square"/>
   </g>
   <g id="patch_6">
    <path d="M 57.6 41.472 
L 414.72 41.472 
" style="fill: none; stroke: #000000; stroke-width: 0.8; stroke-linejoin: miter; stroke-linecap: square"/>
   </g>
   <g id="text_20">
    <!-- Time for each step -->
    <g transform="translate(180.06 35.472)scale(0.12 -0.12)">
     <defs>
      <path id="DejaVuSans-66" d="M 2375 4863 
L 2375 4384 
L 1825 4384 
Q 1516 4384 1395 4259 
Q 1275 4134 1275 3809 
L 1275 3500 
L 2222 3500 
L 2222 3053 
L 1275 3053 
L 1275 0 
L 697 0 
L 697 3053 
L 147 3053 
L 147 3500 
L 697 3500 
L 697 3744 
Q 697 4328 969 4595 
Q 1241 4863 1831 4863 
L 2375 4863 
z
" transform="scale(0.015625)"/>
      <path id="DejaVuSans-63" d="M 3122 3366 
L 3122 2828 
Q 2878 2963 2633 3030 
Q 2388 3097 2138 3097 
Q 1578 3097 1268 2742 
Q 959 2388 959 1747 
Q 959 1106 1268 751 
Q 1578 397 2138 397 
Q 2388 397 2633 464 
Q 2878 531 3122 666 
L 3122 134 
Q 2881 22 2623 -34 
Q 2366 -91 2075 -91 
Q 1284 -91 818 406 
Q 353 903 353 1747 
Q 353 2603 823 3093 
Q 1294 3584 2113 3584 
Q 2378 3584 2631 3529 
Q 2884 3475 3122 3366 
z
" transform="scale(0.015625)"/>
      <path id="DejaVuSans-68" d="M 3513 2113 
L 3513 0 
L 2938 0 
L 2938 2094 
Q 2938 2591 2744 2837 
Q 2550 3084 2163 3084 
Q 1697 3084 1428 2787 
Q 1159 2491 1159 1978 
L 1159 0 
L 581 0 
L 581 4863 
L 1159 4863 
L 1159 2956 
Q 1366 3272 1645 3428 
Q 1925 3584 2291 3584 
Q 2894 3584 3203 3211 
Q 3513 2838 3513 2113 
z
" transform="scale(0.015625)"/>
      <path id="DejaVuSans-70" d="M 1159 525 
L 1159 -1331 
L 581 -1331 
L 581 3500 
L 1159 3500 
L 1159 2969 
Q 1341 3281 1617 3432 
Q 1894 3584 2278 3584 
Q 2916 3584 3314 3078 
Q 3713 2572 3713 1747 
Q 3713 922 3314 415 
Q 2916 -91 2278 -91 
Q 1894 -91 1617 61 
Q 1341 213 1159 525 
z
M 3116 1747 
Q 3116 2381 2855 2742 
Q 2594 3103 2138 3103 
Q 1681 3103 1420 2742 
Q 1159 2381 1159 1747 
Q 1159 1113 1420 752 
Q 1681 391 2138 391 
Q 2594 391 2855 752 
Q 3116 1113 3116 1747 
z
" transform="scale(0.015625)"/>
     </defs>
     <use xlink:href="#DejaVuSans-54"/>
     <use xlink:href="#DejaVuSans-69" x="57.958984"/>
     <use xlink:href="#DejaVuSans-6d" x="85.742188"/>
     <use xlink:href="#DejaVuSans-65" x="183.154297"/>
     <use xlink:href="#DejaVuSans-20" x="244.677734"/>
     <use xlink:href="#DejaVuSans-66" x="276.464844"/>
     <use xlink:href="#DejaVuSans-6f" x="311.669922"/>
     <use xlink:href="#DejaVuSans-72" x="372.851562"/>
     <use xlink:href="#DejaVuSans-20" x="413.964844"/>
     <use xlink:href="#DejaVuSans-65" x="445.751953"/>
     <use xlink:href="#DejaVuSans-61" x="507.275391"/>
     <use xlink:href="#DejaVuSans-63" x="568.554688"/>
     <use xlink:href="#DejaVuSans-68" x="623.535156"/>
     <use xlink:href="#DejaVuSans-20" x="686.914062"/>
     <use xlink:href="#DejaVuSans-73" x="718.701172"/>
     <use xlink:href="#DejaVuSans-74" x="770.800781"/>
     <use xlink:href="#DejaVuSans-65" x="810.009766"/>
     <use xlink:href="#DejaVuSans-70" x="871.533203"/>
    </g>
   </g>
   <g id="legend_1">
    <g id="patch_7">
     <path d="M 270.354375 78.82825 
L 407.72 78.82825 
Q 409.72 78.82825 409.72 76.82825 
L 409.72 48.472 
Q 409.72 46.472 407.72 46.472 
L 270.354375 46.472 
Q 268.354375 46.472 268.354375 48.472 
L 268.354375 76.82825 
Q 268.354375 78.82825 270.354375 78.82825 
z
" style="fill: #ffffff; opacity: 0.8; stroke: #cccccc; stroke-linejoin: miter"/>
    </g>
    <g id="line2d_37">
     <path d="M 272.354375 54.570437 
L 282.354375 54.570437 
L 292.354375 54.570437 
" style="fill: none; stroke: #1f77b4; stroke-width: 1.5; stroke-linecap: square"/>
    </g>
    <g id="text_21">
     <!-- Curvature Filter Time -->
     <g transform="translate(300.354375 58.070437)scale(0.1 -0.1)">
      <defs>
       <path id="DejaVuSans-43" d="M 4122 4306 
L 4122 3641 
Q 3803 3938 3442 4084 
Q 3081 4231 2675 4231 
Q 1875 4231 1450 3742 
Q 1025 3253 1025 2328 
Q 1025 1406 1450 917 
Q 1875 428 2675 428 
Q 3081 428 3442 575 
Q 3803 722 4122 1019 
L 4122 359 
Q 3791 134 3420 21 
Q 3050 -91 2638 -91 
Q 1578 -91 968 557 
Q 359 1206 359 2328 
Q 359 3453 968 4101 
Q 1578 4750 2638 4750 
Q 3056 4750 3426 4639 
Q 3797 4528 4122 4306 
z
" transform="scale(0.015625)"/>
       <path id="DejaVuSans-75" d="M 544 1381 
L 544 3500 
L 1119 3500 
L 1119 1403 
Q 1119 906 1312 657 
Q 1506 409 1894 409 
Q 2359 409 2629 706 
Q 2900 1003 2900 1516 
L 2900 3500 
L 3475 3500 
L 3475 0 
L 2900 0 
L 2900 538 
Q 2691 219 2414 64 
Q 2138 -91 1772 -91 
Q 1169 -91 856 284 
Q 544 659 544 1381 
z
M 1991 3584 
L 1991 3584 
z
" transform="scale(0.015625)"/>
       <path id="DejaVuSans-76" d="M 191 3500 
L 800 3500 
L 1894 563 
L 2988 3500 
L 3597 3500 
L 2284 0 
L 1503 0 
L 191 3500 
z
" transform="scale(0.015625)"/>
       <path id="DejaVuSans-46" d="M 628 4666 
L 3309 4666 
L 3309 4134 
L 1259 4134 
L 1259 2759 
L 3109 2759 
L 3109 2228 
L 1259 2228 
L 1259 0 
L 628 0 
L 628 4666 
z
" transform="scale(0.015625)"/>
       <path id="DejaVuSans-6c" d="M 603 4863 
L 1178 4863 
L 1178 0 
L 603 0 
L 603 4863 
z
" transform="scale(0.015625)"/>
      </defs>
      <use xlink:href="#DejaVuSans-43"/>
      <use xlink:href="#DejaVuSans-75" x="69.824219"/>
      <use xlink:href="#DejaVuSans-72" x="133.203125"/>
      <use xlink:href="#DejaVuSans-76" x="174.316406"/>
      <use xlink:href="#DejaVuSans-61" x="233.496094"/>
      <use xlink:href="#DejaVuSans-74" x="294.775391"/>
      <use xlink:href="#DejaVuSans-75" x="333.984375"/>
      <use xlink:href="#DejaVuSans-72" x="397.363281"/>
      <use xlink:href="#DejaVuSans-65" x="436.226562"/>
      <use xlink:href="#DejaVuSans-20" x="497.75"/>
      <use xlink:href="#DejaVuSans-46" x="529.537109"/>
      <use xlink:href="#DejaVuSans-69" x="579.806641"/>
      <use xlink:href="#DejaVuSans-6c" x="607.589844"/>
      <use xlink:href="#DejaVuSans-74" x="635.373047"/>
      <use xlink:href="#DejaVuSans-65" x="674.582031"/>
      <use xlink:href="#DejaVuSans-72" x="736.105469"/>
      <use xlink:href="#DejaVuSans-20" x="777.21875"/>
      <use xlink:href="#DejaVuSans-54" x="809.005859"/>
      <use xlink:href="#DejaVuSans-69" x="866.964844"/>
      <use xlink:href="#DejaVuSans-6d" x="894.748047"/>
      <use xlink:href="#DejaVuSans-65" x="992.160156"/>
     </g>
    </g>
    <g id="line2d_38">
     <path d="M 272.354375 69.248562 
L 282.354375 69.248562 
L 292.354375 69.248562 
" style="fill: none; stroke: #ff7f0e; stroke-width: 1.5; stroke-linecap: square"/>
    </g>
    <g id="text_22">
     <!-- Particel Filter Time -->
     <g transform="translate(300.354375 72.748562)scale(0.1 -0.1)">
      <defs>
       <path id="DejaVuSans-50" d="M 1259 4147 
L 1259 2394 
L 2053 2394 
Q 2494 2394 2734 2622 
Q 2975 2850 2975 3272 
Q 2975 3691 2734 3919 
Q 2494 4147 2053 4147 
L 1259 4147 
z
M 628 4666 
L 2053 4666 
Q 2838 4666 3239 4311 
Q 3641 3956 3641 3272 
Q 3641 2581 3239 2228 
Q 2838 1875 2053 1875 
L 1259 1875 
L 1259 0 
L 628 0 
L 628 4666 
z
" transform="scale(0.015625)"/>
      </defs>
      <use xlink:href="#DejaVuSans-50"/>
      <use xlink:href="#DejaVuSans-61" x="55.802734"/>
      <use xlink:href="#DejaVuSans-72" x="117.082031"/>
      <use xlink:href="#DejaVuSans-74" x="158.195312"/>
      <use xlink:href="#DejaVuSans-69" x="197.404297"/>
      <use xlink:href="#DejaVuSans-63" x="225.1875"/>
      <use xlink:href="#DejaVuSans-65" x="280.167969"/>
      <use xlink:href="#DejaVuSans-6c" x="341.691406"/>
      <use xlink:href="#DejaVuSans-20" x="369.474609"/>
      <use xlink:href="#DejaVuSans-46" x="401.261719"/>
      <use xlink:href="#DejaVuSans-69" x="451.53125"/>
      <use xlink:href="#DejaVuSans-6c" x="479.314453"/>
      <use xlink:href="#DejaVuSans-74" x="507.097656"/>
      <use xlink:href="#DejaVuSans-65" x="546.306641"/>
      <use xlink:href="#DejaVuSans-72" x="607.830078"/>
      <use xlink:href="#DejaVuSans-20" x="648.943359"/>
      <use xlink:href="#DejaVuSans-54" x="680.730469"/>
      <use xlink:href="#DejaVuSans-69" x="738.689453"/>
      <use xlink:href="#DejaVuSans-6d" x="766.472656"/>
      <use xlink:href="#DejaVuSans-65" x="863.884766"/>
     </g>
    </g>
   </g>
  </g>
 </g>
 <defs>
  <clipPath id="p76a697f6e9">
   <rect x="57.6" y="41.472" width="357.12" height="266.112"/>
  </clipPath>
 </defs>
</svg>
